<svg width="144" height="144" viewBox="0 0 144 144" fill="none" xmlns="http://www.w3.org/2000/svg">
<path fill-rule="evenodd" clip-rule="evenodd" d="M27.3969 73.6199C28.3026 77.7569 30.3694 81.8153 33.815 86.2518C41.4827 96.119 50.9931 101.584 63.2324 105.252C85.8065 112.033 111.411 95.3179 125.674 82.71C132.21 76.9301 137.64 70.0321 137.827 63.8957C124.446 53.8321 108.645 48.4297 92.6794 42.9652C87.2135 41.0911 80.4967 37.896 76.0362 38.0026C63.4479 38.3084 45.5974 45.1009 37.4362 52.1335C32.3247 56.5362 31.5734 64.6625 26.7311 69.1965C24.1307 71.6316 18.3904 73.6052 14.3293 76.1902C11.0702 78.266 4.13475 80.7539 6.47191 85.137C12.7934 83.3087 20.5865 75.1757 27.4078 73.6228L27.3969 73.6199ZM50.3962 86.6087C45.597 80.4018 37.8656 74.8431 38.9518 68.2061C41.1679 67.5461 43.3841 66.8861 45.6071 66.2221C50.9829 84.578 61.9668 92.4843 71.7006 102.74C62.7342 105.235 56.9203 95.0373 50.3962 86.6087ZM62.4428 91.6177C55.6123 83.44 48.9912 77.2679 47.4229 65.6823C50.1519 65.3364 52.9318 64.8871 55.231 65.3441C64.3081 80.9066 75.6284 92.2986 87.0769 103.45C75.9936 107.288 69.4239 99.9766 62.4497 91.6137L62.4428 91.6177ZM88.1638 100.483C77.2985 95.7816 64.3184 75.9634 57.6577 64.618C60.5285 64.9484 63.8742 64.3944 66.8576 64.5211C76.7005 78.3471 89.2319 87.1629 101.474 96.5152C97.2123 99.2626 93.021 102.579 88.1667 100.472L88.1638 100.483ZM105.099 95.4396C91.5886 88.4373 80.283 77.3419 70.0584 64.2265C73.2541 64.2583 76.4412 64.3229 79.4354 64.7392C89.0036 75.6171 100.349 83.1761 111.636 90.8424C108.967 92.1059 106.768 93.6251 105.102 95.4286L105.099 95.4396ZM82.824 65.0573C96.1792 70.4665 107.852 78.992 122.278 82.396C109.525 96.6934 92.5575 73.1585 82.824 65.0573ZM91.538 67.7558C104.48 66.053 117.047 73.2394 128.636 77.2C119.334 86.1021 100.422 70.6522 91.538 67.7558ZM110.299 68.7773C116.997 67.203 126.434 69.9094 134.139 66.9679C132.822 80.0807 116.991 71.0528 110.299 68.7773ZM133.231 63.9422C126.387 66.8118 117.656 65.2326 110.178 66.1751C115.563 61.6238 127.136 60.8039 132.686 62.121C132.87 62.7268 133.047 63.3365 133.231 63.9422ZM127.78 58.9526C115.249 60.8894 100.927 68.7517 90.4482 64.1134C99.082 54.5335 119.486 53.3765 127.78 58.9526ZM112.165 53.0267C101.446 52.2161 90.4704 63.3702 80.7033 62.3891C88.8506 55.0133 101.525 49.258 112.165 53.0267ZM102.479 49.2991C95.5876 52.7879 83.1539 55.547 78.5196 61.7175C76.3232 61.7097 74.0366 61.8649 71.9234 61.6981C78.3779 56.0484 93.1966 45.4403 102.472 49.3031L102.479 49.2991ZM93.5881 45.9909C81.0975 50.4379 72.7137 61.2325 60.3135 62.5022C64.7603 55.3212 83.9346 41.3939 93.5881 45.9909ZM83.9063 42.2701C79.6682 47.1487 74.0046 47.7557 68.2408 51.555C61.3635 56.0896 58.9686 63.778 49.3046 63.135C52.3917 52.0514 70.637 39.8809 83.9023 42.2632L83.9063 42.2701ZM65.6932 43.0588C57.0234 48.8595 48.6496 54.8221 45.4891 63.6089C43.3845 64.0474 41.7166 63.6789 39.2538 64.805C41.8803 54.1999 51.9109 47.6136 65.6932 43.0588ZM46.2683 50.8251C38.4761 54.7322 42.0135 64.7834 31.3866 67.1466C34.1633 60.8373 37.9044 52.418 46.2683 50.8251ZM29.6367 72.299C31.5059 70.9424 33.8451 69.8415 36.539 68.9242C41.839 82.6824 51.1025 89.0764 58.2101 99.4888C46.6216 94.2522 35.795 87.6235 29.6367 72.299Z" fill="#815B6C"/>
</svg>
