<svg width="144" height="144" viewBox="0 0 144 144" fill="none" xmlns="http://www.w3.org/2000/svg">
<path d="M73.8202 58.7925C71.0446 57.1077 70.3609 53.6638 69.6798 50.4759C69.0166 52.2324 68.0615 53.6945 67.1628 55.3025C66.1565 57.1 64.3513 57.3049 64.3513 57.3049C62.9994 57.2025 61.9598 56.4061 61.5117 55.1463C60.6898 52.8265 61.6115 50.5348 62.2927 48.0332C59.9472 49.7154 57.3892 51.3849 54.5931 51.7844C53.277 51.9713 52.2758 51.0495 52.2451 49.7078C52.2016 47.7259 53.0901 46.0001 54.209 44.2256C51.9071 44.9093 49.1366 46.3611 47.4697 44.9144C46.763 44.2999 46.7066 43.2654 46.8142 42.3795C47.5977 38.6488 51.2439 36.1062 54.7007 34.6031C50.8445 33.5789 46.0793 32.25 43.6929 29.267C43.1373 28.5731 42.9452 27.7537 43.2371 26.8601C43.4471 26.2148 44.1051 25.6028 44.9348 25.3903C47.9024 24.6298 51.8943 26.0612 55.0335 26.9574C53.5919 24.7579 52.4218 22.648 51.4974 20.3076C51.1927 19.5369 51.0263 18.7918 50.9008 17.9366C50.7753 17.0814 51.1543 15.8549 52.0505 15.5425C53.6585 14.9792 55.3638 15.4401 56.7849 16.3004C58.224 17.1684 59.2687 18.3744 60.5156 19.5881C60.2724 17.742 60.1264 16.1135 60.2084 14.3672C60.2519 13.4044 60.7486 12.4775 61.5578 11.9884C62.2389 11.5788 63.0864 11.6453 63.8085 11.968C66.8171 13.3174 67.5955 16.8074 68.4303 20.0362C69.2394 17.3937 70.9575 13.0331 73.1468 11.4456C74.1582 10.7133 75.3847 10.9105 76.2117 11.8399C78.0169 13.8628 78.3524 17.5269 78.3549 20.4894C79.415 19.2245 80.4085 18.0979 81.6298 17.1095C83.3505 15.7166 85.8215 15.4785 86.8482 17.2939C87.4884 18.4256 87.514 19.7571 87.0351 20.9836C86.2926 22.8861 85.2709 24.5248 84.1136 26.3095L87.7265 24.8833C89.4779 24.192 91.2088 24.0665 93.0883 24.1024C94.1176 24.1228 95.2238 24.2483 95.7666 25.252C97.011 27.554 92.6914 30.3014 90.3306 31.5535C93.6746 31.7225 97.7254 32.0144 99.9198 34.6108C100.803 35.6555 100.706 36.9972 99.7226 37.9062C97.3029 40.1493 94.1534 39.8266 90.8222 39.8778C92.9372 41.194 94.7424 42.738 96.2505 44.6968C97.3439 46.1153 98.4449 48.005 97.6332 49.38C97.349 49.8639 96.7242 50.4324 95.9919 50.5118C93.0473 50.8293 91.6595 50.2916 89.1322 48.8628L89.8261 50.732C90.2896 51.9815 90.4048 53.3284 90.1232 54.6112C89.7724 56.2064 88.3205 57.1922 86.6972 56.7672C83.7551 55.9964 81.3098 52.6882 79.648 49.9561C79.4457 52.8751 79.1564 55.9299 77.533 58.2523C75.9096 60.5747 73.8176 58.8002 73.8176 58.8002L73.8202 58.7925ZM73.2774 28.6371C73.8945 27.2441 74.4501 26.2122 75.1466 25.06C77.0874 21.7851 76.9825 17.3656 75.5742 13.8679C75.3975 13.4275 75.0441 12.9589 74.6191 12.7464C73.8765 12.3725 71.9459 15.5604 71.3186 17.025C69.9128 20.3051 69.2752 23.8181 69.3751 27.4003L73.2799 28.6396L73.2774 28.6371ZM64.9274 26.7909C65.8928 26.901 66.7121 26.9855 67.5827 27.0034C67.4291 23.3854 66.8069 20.1054 65.7494 16.8151C65.2578 15.2685 63.4372 13.0485 62.4642 13.4454C61.0662 14.0164 62.3925 20.6354 63.1223 22.9808C63.5524 24.361 64.2668 25.5363 64.9274 26.7935V26.7909ZM62.6665 26.8677C61.568 23.9103 59.8909 21.4829 57.8783 19.2937C56.3112 17.829 54.9209 16.8227 52.6497 17.0762C52.6164 17.9929 52.7674 18.8456 53.0978 19.7264C54.2013 22.6659 56.3599 26.2865 58.7309 28.5065C59.9165 27.6257 61.1455 27.2621 62.6665 26.8677ZM77.4101 30.6445C79.4073 29.2388 81.0332 27.7025 82.3801 25.777C83.7295 23.7669 85.8138 21.022 85.614 18.7739C85.5475 18.0108 84.9048 17.5166 84.1469 17.7215C83.476 17.9033 82.7898 18.2515 82.2623 18.779C80.3573 20.684 78.4753 22.6992 77.3205 25.165L75.2618 29.5691L77.4075 30.6445H77.4101ZM87.875 30.8007C89.6059 30.03 91.2703 29.1517 92.7528 27.9893C93.4314 27.4541 94.0613 26.8908 94.284 25.9818C92.6274 25.5926 91.004 25.7616 89.3985 26.1687C85.614 27.1238 82.2725 29.2977 79.1461 31.7302C79.735 32.2807 80.2139 32.6546 80.8079 33.0463C82.8051 32.5649 84.6666 32.104 86.5666 31.3922C86.5666 31.3922 87.9518 30.5728 87.875 30.8059V30.8007ZM58.0601 33.1334C57.2509 31.1746 58.2547 30.1068 57.0026 29.5973C54.0247 28.2018 50.8854 27.2851 47.6003 26.9061C46.4301 26.7704 44.9245 26.9394 44.7888 27.513C44.7555 27.6513 44.8707 27.9662 44.9732 28.107C46.7118 30.5114 51.2106 31.9658 54.2142 32.6725C55.4791 32.9695 56.7132 33.1206 58.0601 33.1359V33.1334ZM81.5966 40.4744C82.5235 39.8881 82.6848 38.8255 82.2674 37.8217C80.4802 33.5405 73.8356 30.3091 69.3521 29.2234C68.5967 29.7304 67.5827 29.6178 67.1551 28.7497C64.5869 28.6652 61.9751 28.1685 60.0163 29.7407C58.8154 30.7034 59.4684 32.6648 60.5694 33.9886C63.4884 37.494 68.4892 39.8318 72.8984 40.9456C75.5025 41.6036 79.4764 41.8187 81.6017 40.4744H81.5966ZM98.8136 36.0729C98.5115 34.9872 96.0585 33.9425 94.4658 33.6788C90.4893 33.0233 86.2593 33.2537 82.4108 34.6492L83.709 36.6618C87.3885 38.001 91.2293 38.4593 95.1162 38.0394C96.9726 37.8397 99.0185 36.8129 98.8111 36.0703L98.8136 36.0729ZM56.7363 41.0506C57.3662 40.646 57.95 40.2338 58.5159 39.7498L61.3811 37.3045L59.517 35.4097C59.197 35.0845 58.8103 34.977 58.3315 35.0743C55.118 36.0319 51.6485 37.6322 49.5847 40.267C48.7448 41.3373 48.138 43.2091 48.6578 43.6572C49.641 44.5047 54.8748 41.9903 56.7388 41.0506H56.7363ZM54.3063 50.1174C56.2959 49.741 57.9551 48.9089 59.5759 47.8437C61.3965 46.5455 63.0019 45.0885 64.4 43.3423L66.4689 40.4949L63.1018 38.5566C62.1057 39.4067 61.143 40.2005 60.1085 40.9661C58.4621 42.0927 57.082 43.4472 55.8222 44.9836C54.8773 46.2382 54.227 47.5799 53.9607 49.1521C53.9146 49.4287 54.0452 50.0432 54.3038 50.12L54.3063 50.1174ZM96.1199 47.7848C95.4619 46.3022 94.5017 45.1474 93.3699 43.9824C90.7889 41.6062 87.7214 39.8625 84.2518 38.8972C84.0752 39.7396 83.8524 40.4207 83.3787 41.1581C85.4579 43.4191 87.7956 45.9412 90.4125 47.5979C93.1446 49.3288 96.8523 49.4287 96.1225 47.7848H96.1199ZM64.1516 55.5304C65.3397 55.5432 66.7659 53.0518 67.4035 51.5641C68.7503 48.4172 69.2957 45.0757 69.4186 41.6549L68.0743 41.1888C67.5981 41.998 67.1756 42.6919 66.6302 43.3935C65.4984 44.8427 64.6842 46.3919 64.0927 48.1407C63.5934 49.613 63.1402 51.0469 62.9379 52.5935C62.7356 54.14 63.194 55.5202 64.1516 55.5304ZM76.35 57.0053C76.9645 56.2192 77.2872 55.3461 77.5253 54.3987C77.725 52.9392 77.8095 51.536 77.8274 50.0381C77.8351 47.7054 77.5919 45.424 76.9057 43.2526C74.9161 43.0606 73.1084 42.738 71.2725 42.3206C70.8935 44.6814 70.9217 46.9168 71.2981 49.1956C71.7154 52.0276 72.1968 55.5893 74.4859 57.2485C75.1056 57.6992 75.8456 57.6454 76.35 57.0027V57.0053ZM87.8212 50.1917C86.9199 48.1637 85.737 46.3483 84.2058 44.7301L81.9294 42.3232C80.8233 42.7712 79.8964 42.9966 78.7697 43.1707C78.9566 44.6251 79.5174 45.9233 80.1575 47.2394C81.3149 49.6181 82.7053 51.8074 84.6359 53.6203C85.6115 54.5369 87.0787 55.5483 87.9723 54.9902C88.9402 54.3833 88.5433 51.8253 87.8187 50.1917H87.8212Z" fill="#815B6C"/>
<path d="M80.0064 39.2915C79.3919 39.6065 78.3907 39.4375 78.3753 38.9305C78.3471 37.9575 79.5736 37.3763 80.3725 37.8986C80.7617 38.1521 80.5364 39.0176 80.0038 39.2915H80.0064Z" fill="#815B6C"/>
<path d="M78.0123 39.0382C77.979 39.4479 77.746 40.1085 77.4899 40.1597C77.2339 40.2109 76.7602 40.1239 76.5553 39.9651C76.3505 39.8064 76.3761 38.9588 76.5988 38.8385L77.3593 38.4211C77.5232 38.3315 78.0302 38.8231 78.0123 39.0382Z" fill="#815B6C"/>
<path d="M97.3976 36.101C97.1338 36.7591 96.0149 37.0766 95.8203 36.6259C95.7639 36.4979 95.8997 36.1906 96.0303 36.1138L96.8419 35.6376C96.9469 35.5761 97.2337 35.5454 97.3105 35.6222C97.3873 35.699 97.4411 35.996 97.4001 36.101H97.3976Z" fill="#815B6C"/>
<path d="M94.3686 37.2327C94.0921 37.1303 93.9077 36.9331 93.9077 36.7974C93.9077 36.6335 94.3021 36.3928 94.4762 36.4594C94.6503 36.526 94.8423 36.7744 94.85 36.9152C94.8577 37.056 94.5018 37.2839 94.3686 37.2353V37.2327Z" fill="#815B6C"/>
<path d="M84.8385 51.2186C84.9768 51.3953 85.0434 51.8075 84.8872 51.8664C84.6926 51.9432 84.416 51.8767 84.2061 51.7589C83.1255 50.5913 82.2959 49.3315 81.4791 47.959L81.5687 47.5212C81.5892 47.4188 82.0398 47.4392 82.1039 47.5314L83.2817 49.206L84.8385 51.2186Z" fill="#815B6C"/>
<path d="M87.1477 53.1185C86.7892 53.3438 86.1951 53.2849 85.916 53.0007C85.8085 52.8906 85.7112 52.6909 85.7214 52.5833C85.7317 52.4758 85.9596 52.2249 86.0645 52.2453L86.9095 52.3938C87.0017 52.4092 87.2065 52.5347 87.2731 52.5987C87.3576 52.6781 87.2629 53.0468 87.1477 53.1185Z" fill="#815B6C"/>
<path d="M52.4655 40.2183C51.3466 41.135 51.2313 42.108 50.7192 42.1925C50.3147 42.259 50.3351 41.0786 51.198 40.2208C52.189 39.235 54.8468 36.9024 55.3026 37.2378C55.3922 37.3044 55.4997 37.4913 55.5817 37.6629L52.4655 40.2183Z" fill="#815B6C"/>
<path d="M57.315 37.0153C57.1639 37.1254 56.8669 37.2918 56.7158 37.3405C56.5648 37.3891 56.2319 37.0076 56.2421 36.8489C56.3138 36.539 57.0334 36.324 57.292 36.4597C57.3995 36.516 57.4149 36.9436 57.315 37.0153Z" fill="#815B6C"/>
<path d="M55.0105 30.0046C54.9081 30.3733 54.5035 30.3144 54.3191 30.2069C54.1655 30.1147 53.8429 29.8049 53.8915 29.6333C53.953 29.4157 54.3499 29.3107 54.5189 29.3516C54.7237 29.4003 55.0847 29.7383 55.0105 30.0046Z" fill="#815B6C"/>
<path d="M92.1128 75.3646C91.3165 75.3979 90.4767 75.5669 89.7239 75.9074C86.2082 77.5052 83.2534 79.9505 81.0974 83.1999C77.5101 88.6052 74.4835 95.5801 73.8844 102.294C69.365 92.5279 68.4253 62.7796 70.0896 52.2711C70.4072 50.2585 68.5431 50.1203 68.5431 50.1203C66.5126 57.4895 66.1464 83.9373 67.9004 91.4832C64.3592 86.8025 60.1855 82.0502 55.2334 78.9929C53.2106 77.7433 50.8856 77.1007 48.5427 77.3874C46.7427 77.6076 45.5366 79.0441 45.5776 80.8493C45.6416 83.6915 49.1137 86.9254 51.5462 88.6205L60.5081 94.8606C64.5512 97.6771 68.223 100.791 71.4109 104.542C72.5734 105.909 73.3595 107.42 74.2249 108.977C74.4374 109.361 84.6591 132.186 85.1021 131.999C85.7525 131.722 86.4156 130.969 86.3158 130.199L75.9712 106.147C76.3092 104.906 76.4551 103.618 76.9852 102.394C79.5124 96.5403 83.3968 91.6317 88.3002 87.5016C91.2627 85.0076 94.8936 81.8018 94.8475 78.0532C94.827 76.4938 93.6927 75.298 92.1103 75.3672L92.1128 75.3646ZM63.5116 94.8836L54.6496 88.5693C51.897 86.6079 48.6938 84.4827 47.4929 81.4049C47.3495 81.0362 47.4622 80.3679 47.6465 80.0017C48.2047 78.8981 51.4182 79.3616 53.3284 80.4038C58.6773 83.3202 65.0326 90.6766 68.118 96.2125L60.8333 89.2991C58.4059 87.3146 55.9375 85.5684 53.2643 83.927L52.5397 84.0423C52.3579 84.0704 52.6037 84.6696 52.7599 84.7669C56.5239 87.1226 59.8552 89.8393 63.125 92.9709C65.3859 95.1345 67.5393 97.1164 69.2754 99.6923C67.3191 97.9895 65.5805 96.3636 63.5091 94.8862L63.5116 94.8836ZM90.0234 83.2075C88.8482 84.6005 87.5269 85.7681 86.1033 86.928C82.7105 89.6908 79.9528 92.7583 77.3129 96.4097C78.9824 92.6534 81.4636 89.3375 84.3314 86.3903L87.2657 83.3714L87.4091 82.7774C87.4399 82.6493 86.8637 82.5802 86.7562 82.6775L84.4312 84.7746C81.6582 87.2762 79.5227 90.1517 77.5511 93.3268C78.4165 90.7714 79.6968 88.6077 81.0436 86.357C82.8411 83.3535 85.3505 81.0413 88.4231 79.3975C89.583 78.7778 91.3344 78.1479 91.7364 78.7957C92.2614 79.6381 91.0835 81.9503 90.0234 83.2101V83.2075Z" fill="#815B6C"/>
</svg>
