<svg width="37" height="37" viewBox="0 0 37 37" fill="none" xmlns="http://www.w3.org/2000/svg">
<circle cx="18.4992" cy="18.4992" r="18.4992" fill="#815B6C"/>
<mask id="path-2-outside-1_2191_1474" maskUnits="userSpaceOnUse" x="10.6282" y="5.34277" width="17" height="27" fill="black">
<rect fill="white" x="10.6282" y="5.34277" width="17" height="27"/>
<path d="M24.8349 14.0731C24.8646 14.0361 24.8883 13.9961 24.9076 13.9531C24.9313 13.8982 24.9565 13.8582 24.9832 13.836C25.1003 13.7396 25.2026 13.7396 25.293 13.8389C25.3389 13.8893 25.3701 13.9709 25.3879 14.082C25.4946 14.7476 25.588 15.4029 25.668 16.0463C25.6769 16.1115 25.7362 16.1589 25.8029 16.15C25.8178 16.1485 25.8326 16.1441 25.8445 16.1367C26.347 15.8624 26.5516 15.987 26.4611 16.5103C26.3233 17.3152 26.1899 18.0846 26.0624 18.8184C26.0446 18.9177 26.1113 19.0141 26.2121 19.0319C26.2284 19.0348 26.2447 19.0348 26.261 19.0334C26.5116 19.0111 26.6568 19.0675 26.6939 19.2038C26.7161 19.2869 26.685 19.4025 26.5975 19.5492C26.261 20.117 25.9126 20.6967 25.5539 21.2852C25.4902 21.3904 25.5139 21.4171 25.6251 21.3667C25.7155 21.3252 25.8104 21.3445 25.9067 21.423C25.9423 21.4527 25.9616 21.4986 25.9571 21.5476C25.9438 21.7269 25.8697 21.9493 25.7377 22.2147C25.0988 23.494 24.3324 24.6903 23.4385 25.8066C22.7313 26.6887 21.8656 27.4299 20.8412 28.0273C20.7523 28.0792 20.6974 28.1755 20.6974 28.2793L20.6886 31.5822C20.6886 31.6266 20.6589 31.6652 20.6174 31.677C20.4469 31.723 20.275 31.7245 20.1015 31.6845C20.057 31.6741 20.0244 31.637 20.0215 31.5925L19.7724 28.3193C19.765 28.2259 19.7101 28.1459 19.6301 28.1088C17.7103 27.2297 15.9744 26.1742 14.4238 24.9394C14.2978 24.8401 14.2326 24.757 14.2266 24.6918C14.2162 24.5895 14.2874 24.4813 14.4386 24.3686C14.4742 24.342 14.4816 24.2901 14.4549 24.2545C14.4534 24.2515 14.4505 24.25 14.449 24.2471C13.9791 23.7594 13.5062 23.242 13.0288 22.695C12.9502 22.6045 12.9517 22.5082 13.0362 22.4074C13.0688 22.3688 13.0644 22.311 13.0259 22.2769C13.0259 22.2769 13.0259 22.2769 13.0244 22.2769C12.7486 22.0471 12.4996 21.8203 12.2772 21.5995C12.1868 21.509 12.1408 21.4171 12.1408 21.3252C12.1408 21.1414 12.2624 21.0806 12.504 21.1414C12.6508 21.177 12.6893 21.128 12.6197 20.9961C12.4166 20.6047 12.2046 20.2208 11.9822 19.8443C11.7406 19.4336 11.8666 19.2483 12.3602 19.2883C12.4581 19.2958 12.4788 19.2602 12.421 19.1816C12.2402 18.9326 12.0593 18.682 11.8799 18.4285C11.7762 18.2803 11.7421 18.1706 11.7762 18.0994C11.8221 18.006 11.9452 17.9304 12.1453 17.8726C12.2135 17.8533 12.252 17.7807 12.2328 17.7095C12.2328 17.7066 12.2313 17.7036 12.2298 17.7021L11.7658 16.4347C11.6724 16.1782 11.7613 16.0566 12.0341 16.0729C12.2995 16.0892 12.3899 16.0151 12.3024 15.8521C12.2446 15.7438 12.2135 15.6845 12.2105 15.6757C12.0282 15.2324 11.8399 14.7921 11.6487 14.3548C11.6264 14.3044 11.622 14.2525 11.6368 14.214C11.7095 14.0257 11.9303 14.0079 12.3009 14.1606C12.4996 14.2436 12.5678 14.1828 12.5055 13.9768L12.1305 12.7523C12.1156 12.7034 12.1171 12.6545 12.1364 12.6159C12.2328 12.4217 12.4077 12.3654 12.6597 12.4439C12.6849 12.4528 12.7116 12.4395 12.719 12.4158C12.7205 12.4098 12.722 12.4039 12.722 12.3965C12.6834 12.0066 12.6211 11.6212 12.5366 11.2402C12.4655 10.923 12.6182 10.797 12.9962 10.8637C13.1044 10.8829 13.1385 10.8414 13.0955 10.7391C12.9754 10.4575 12.8405 10.1521 12.6923 9.823C12.6315 9.68662 12.6108 9.5873 12.633 9.52503C12.6701 9.42275 12.7798 9.36493 12.9636 9.34862C13.0303 9.34269 13.0777 9.2834 13.0703 9.21372C13.0703 9.20038 13.0659 9.18556 13.0599 9.1737L12.4966 7.94179C12.4833 7.91066 12.4892 7.86323 12.5129 7.81431L12.5974 7.64679C12.6123 7.61714 12.6048 7.56674 12.5796 7.51337L12.126 6.57054C12.1053 6.52904 12.1127 6.47863 12.1438 6.44305C12.2609 6.31557 12.4092 6.30964 12.5856 6.42527C12.8761 6.61353 13.1667 6.81218 13.4572 7.0212C13.5165 7.06271 13.5951 7.05826 13.6485 7.00934C13.8101 6.85962 13.9494 6.88482 14.068 7.08791C14.1822 7.28211 14.3126 7.46445 14.4594 7.63197C14.4772 7.65272 14.5098 7.6542 14.532 7.63493C14.5365 7.63048 14.5409 7.62604 14.5424 7.62159C14.704 7.33548 14.9071 7.32659 15.1546 7.59787C15.4956 7.97293 15.8321 8.32575 16.1627 8.65633C16.2101 8.70228 16.2857 8.70228 16.3317 8.65633C16.3406 8.64743 16.3465 8.63854 16.3524 8.62816C16.4962 8.36281 16.6815 8.32278 16.9113 8.50808C17.3457 8.85646 17.7845 9.19742 18.2292 9.53245C18.2559 9.55172 18.2944 9.54579 18.3137 9.5191C18.3152 9.51614 18.3181 9.51317 18.3196 9.51021C18.4649 9.21224 18.6517 9.16629 18.8815 9.37086C19.0164 9.49094 19.089 9.55616 19.0994 9.56358C19.381 9.77853 19.6494 10.0068 19.9058 10.2485C19.974 10.3122 20.0808 10.3092 20.1445 10.2425C20.1519 10.2351 20.1593 10.2262 20.1653 10.2158C20.3417 9.93567 20.5329 9.90602 20.739 10.1284C21.0132 10.4234 21.2756 10.7199 21.5276 11.0164C21.5543 11.0475 21.6002 11.0505 21.6299 11.0238C21.6358 11.0178 21.6418 11.0119 21.6462 11.0045C21.8182 10.6962 21.9946 10.6532 22.1769 10.8755C22.5431 11.3247 22.9196 11.7798 23.305 12.2438C23.3421 12.2883 23.4073 12.2942 23.4503 12.2572C23.4622 12.2468 23.4726 12.2349 23.4785 12.2201C23.5734 12.0081 23.7068 11.9236 23.8787 11.9696C23.9232 11.9814 23.9603 12.0155 23.9796 12.063L24.7593 14.0568C24.7682 14.0806 24.7934 14.0939 24.8156 14.0865C24.8231 14.0835 24.829 14.0791 24.8349 14.0731ZM13.6944 7.71498C15.7091 10.075 17.2849 12.7004 18.4189 15.5926C19.0519 17.207 19.4789 18.7473 19.6968 20.2134C20.063 22.6727 20.3224 25.1425 20.4751 27.6226C20.4751 27.6433 20.4944 27.6582 20.5136 27.6582C20.5196 27.6582 20.5255 27.6567 20.5299 27.6522C21.0177 27.3572 21.4742 27.0326 21.9012 26.6768C22.2925 26.3507 22.6809 25.9504 23.0649 25.476C23.9277 24.4101 24.6689 23.2613 25.2871 22.0308C25.3093 21.9879 25.296 21.9715 25.247 21.9804C25.0202 22.0175 24.8705 21.9463 24.7964 21.7655C24.7801 21.724 24.7845 21.6736 24.8097 21.6306L25.9927 19.6412C26.0579 19.5315 26.0283 19.4885 25.9052 19.5122C25.757 19.5404 25.6488 19.5122 25.5791 19.4218C25.5331 19.361 25.5183 19.2676 25.5376 19.1386C25.6547 18.3337 25.7837 17.5302 25.923 16.7267C25.9393 16.6377 25.9112 16.6214 25.8415 16.6778C25.631 16.8483 25.4679 16.8616 25.3508 16.7193C25.2945 16.6511 25.253 16.5266 25.2263 16.3457C25.1581 15.8787 25.0929 15.4029 25.0291 14.9152C25.0217 14.8662 25.001 14.8588 24.9639 14.89C24.8557 14.9834 24.7563 15.0056 24.663 14.9552C24.6051 14.9241 24.5562 14.8529 24.5132 14.7432C24.2657 14.0983 24.0181 13.4579 23.7705 12.8249C23.7394 12.7464 23.7023 12.7434 23.6593 12.8175C23.5393 13.0251 23.4133 13.0592 23.2843 12.9213C22.9003 12.5121 22.5342 12.0837 22.1858 11.6375C22.1132 11.5441 22.0731 11.5575 22.0657 11.676C22.0568 11.8258 21.9738 11.9029 21.8182 11.9058C21.7707 11.9058 21.7233 11.888 21.6907 11.8525L20.5744 10.6828C20.5299 10.6354 20.4573 10.6324 20.4113 10.6754C20.4024 10.6843 20.395 10.6932 20.3891 10.7036C20.2735 10.9274 20.1252 10.9734 19.9444 10.8429C19.5456 10.5553 19.1661 10.2499 18.8044 9.92529C18.7584 9.88527 18.6887 9.88823 18.6472 9.93419C18.6354 9.94753 18.628 9.96235 18.6235 9.97866C18.5894 10.1061 18.5168 10.1788 18.4071 10.1951C18.3626 10.201 18.3137 10.1877 18.2737 10.1566L16.769 9.00025C16.7275 8.96912 16.6697 8.97505 16.64 9.01359C16.6371 9.01804 16.6341 9.02249 16.6311 9.02842C16.4443 9.40496 16.2146 9.4435 15.9418 9.14257C15.6587 8.83274 15.3444 8.50512 14.999 8.15971C14.9619 8.12117 14.8996 8.12117 14.8596 8.15971C14.8492 8.16861 14.8418 8.18047 14.8374 8.19381C14.7455 8.42507 14.6254 8.50957 14.4772 8.44582C14.4045 8.41469 14.3259 8.33168 14.2414 8.19677C14.1199 8.00406 13.9865 7.82024 13.8427 7.64383C13.8145 7.60973 13.7686 7.59046 13.7196 7.59491C13.5106 7.60825 13.3223 7.55043 13.1519 7.4185C13.0496 7.33993 13.0451 7.37106 13.1385 7.51189C13.2141 7.629 13.2023 7.78762 13.1029 7.99072C13.0792 8.03964 13.0777 8.09745 13.1015 8.14785C13.2645 8.49326 13.435 8.85942 13.6129 9.24782C13.7552 9.55468 13.6648 9.71479 13.3416 9.72664C13.2764 9.72813 13.226 9.78298 13.2275 9.84672C13.2275 9.86303 13.2319 9.87934 13.2393 9.89416C13.4068 10.244 13.5669 10.5924 13.7196 10.9393C13.8026 11.129 13.8026 11.2565 13.7211 11.3232C13.6307 11.3988 13.4617 11.4196 13.2171 11.3885C13.1459 11.3796 13.0807 11.4314 13.0718 11.5026C13.0703 11.5174 13.0718 11.5308 13.0733 11.5456L13.309 12.7301C13.3194 12.7819 13.3134 12.8309 13.2927 12.8694C13.2156 13.0102 13.0896 13.0503 12.9132 12.988C12.7486 12.9302 12.6938 12.9836 12.7472 13.1511L13.2023 14.5905C13.2838 14.8485 13.1874 14.9315 12.9147 14.841L12.467 14.6913C12.338 14.6483 12.3009 14.6839 12.3558 14.801C12.4714 15.0456 12.5885 15.311 12.7086 15.5956C12.7131 15.6089 12.7649 15.7127 12.8628 15.9099C13.054 16.2953 12.9013 16.4969 12.4062 16.5162C12.3736 16.5162 12.3484 16.5444 12.3484 16.577C12.3484 16.5814 12.3484 16.5859 12.3513 16.5903C12.4714 17.0202 12.6167 17.4412 12.7887 17.8533C12.8776 18.0653 12.7827 18.2254 12.504 18.3307C12.4655 18.3455 12.4462 18.39 12.4625 18.4315C12.4655 18.4389 12.4685 18.4448 12.4729 18.4508L13.1741 19.447C13.2008 19.4855 13.2023 19.5374 13.1785 19.5789C13.0822 19.7346 12.8924 19.7924 12.6063 19.7523C12.5248 19.7405 12.504 19.7701 12.5441 19.8428C12.7605 20.2445 12.9888 20.6374 13.2289 21.0228C13.4068 21.3089 13.3624 21.5016 13.097 21.6009C13.0748 21.6083 13.0629 21.6335 13.0718 21.6573C13.0748 21.6632 13.0777 21.6691 13.0822 21.6736L13.8931 22.4682C13.9301 22.5052 13.9435 22.5556 13.9272 22.5956L13.8456 22.7839C13.8264 22.8284 13.8293 22.8743 13.8531 22.901C14.237 23.322 14.6298 23.7342 15.0316 24.1389C15.2465 24.3538 15.2258 24.5302 14.9723 24.6666C14.9515 24.677 14.9426 24.7037 14.953 24.7244C14.956 24.7304 14.9604 24.7363 14.9664 24.7407C16.5288 25.9845 18.2159 26.9703 20.0259 27.7012C20.0496 27.7115 20.0778 27.6997 20.0882 27.6745C20.0911 27.6685 20.0926 27.6611 20.0911 27.6552C19.9636 25.4894 19.7591 23.3295 19.4774 21.1784C19.1824 18.9177 18.5716 16.746 17.6466 14.6661C16.5792 12.269 15.2021 10.0661 13.5136 8.05891C13.4572 7.9922 13.4291 7.92697 13.4291 7.86619C13.4291 7.7639 13.4765 7.70016 13.5729 7.67347C13.6144 7.66162 13.6618 7.67792 13.6944 7.71647V7.71498Z"/>
</mask>
<path d="M24.8349 14.0731C24.8646 14.0361 24.8883 13.9961 24.9076 13.9531C24.9313 13.8982 24.9565 13.8582 24.9832 13.836C25.1003 13.7396 25.2026 13.7396 25.293 13.8389C25.3389 13.8893 25.3701 13.9709 25.3879 14.082C25.4946 14.7476 25.588 15.4029 25.668 16.0463C25.6769 16.1115 25.7362 16.1589 25.8029 16.15C25.8178 16.1485 25.8326 16.1441 25.8445 16.1367C26.347 15.8624 26.5516 15.987 26.4611 16.5103C26.3233 17.3152 26.1899 18.0846 26.0624 18.8184C26.0446 18.9177 26.1113 19.0141 26.2121 19.0319C26.2284 19.0348 26.2447 19.0348 26.261 19.0334C26.5116 19.0111 26.6568 19.0675 26.6939 19.2038C26.7161 19.2869 26.685 19.4025 26.5975 19.5492C26.261 20.117 25.9126 20.6967 25.5539 21.2852C25.4902 21.3904 25.5139 21.4171 25.6251 21.3667C25.7155 21.3252 25.8104 21.3445 25.9067 21.423C25.9423 21.4527 25.9616 21.4986 25.9571 21.5476C25.9438 21.7269 25.8697 21.9493 25.7377 22.2147C25.0988 23.494 24.3324 24.6903 23.4385 25.8066C22.7313 26.6887 21.8656 27.4299 20.8412 28.0273C20.7523 28.0792 20.6974 28.1755 20.6974 28.2793L20.6886 31.5822C20.6886 31.6266 20.6589 31.6652 20.6174 31.677C20.4469 31.723 20.275 31.7245 20.1015 31.6845C20.057 31.6741 20.0244 31.637 20.0215 31.5925L19.7724 28.3193C19.765 28.2259 19.7101 28.1459 19.6301 28.1088C17.7103 27.2297 15.9744 26.1742 14.4238 24.9394C14.2978 24.8401 14.2326 24.757 14.2266 24.6918C14.2162 24.5895 14.2874 24.4813 14.4386 24.3686C14.4742 24.342 14.4816 24.2901 14.4549 24.2545C14.4534 24.2515 14.4505 24.25 14.449 24.2471C13.9791 23.7594 13.5062 23.242 13.0288 22.695C12.9502 22.6045 12.9517 22.5082 13.0362 22.4074C13.0688 22.3688 13.0644 22.311 13.0259 22.2769C13.0259 22.2769 13.0259 22.2769 13.0244 22.2769C12.7486 22.0471 12.4996 21.8203 12.2772 21.5995C12.1868 21.509 12.1408 21.4171 12.1408 21.3252C12.1408 21.1414 12.2624 21.0806 12.504 21.1414C12.6508 21.177 12.6893 21.128 12.6197 20.9961C12.4166 20.6047 12.2046 20.2208 11.9822 19.8443C11.7406 19.4336 11.8666 19.2483 12.3602 19.2883C12.4581 19.2958 12.4788 19.2602 12.421 19.1816C12.2402 18.9326 12.0593 18.682 11.8799 18.4285C11.7762 18.2803 11.7421 18.1706 11.7762 18.0994C11.8221 18.006 11.9452 17.9304 12.1453 17.8726C12.2135 17.8533 12.252 17.7807 12.2328 17.7095C12.2328 17.7066 12.2313 17.7036 12.2298 17.7021L11.7658 16.4347C11.6724 16.1782 11.7613 16.0566 12.0341 16.0729C12.2995 16.0892 12.3899 16.0151 12.3024 15.8521C12.2446 15.7438 12.2135 15.6845 12.2105 15.6757C12.0282 15.2324 11.8399 14.7921 11.6487 14.3548C11.6264 14.3044 11.622 14.2525 11.6368 14.214C11.7095 14.0257 11.9303 14.0079 12.3009 14.1606C12.4996 14.2436 12.5678 14.1828 12.5055 13.9768L12.1305 12.7523C12.1156 12.7034 12.1171 12.6545 12.1364 12.6159C12.2328 12.4217 12.4077 12.3654 12.6597 12.4439C12.6849 12.4528 12.7116 12.4395 12.719 12.4158C12.7205 12.4098 12.722 12.4039 12.722 12.3965C12.6834 12.0066 12.6211 11.6212 12.5366 11.2402C12.4655 10.923 12.6182 10.797 12.9962 10.8637C13.1044 10.8829 13.1385 10.8414 13.0955 10.7391C12.9754 10.4575 12.8405 10.1521 12.6923 9.823C12.6315 9.68662 12.6108 9.5873 12.633 9.52503C12.6701 9.42275 12.7798 9.36493 12.9636 9.34862C13.0303 9.34269 13.0777 9.2834 13.0703 9.21372C13.0703 9.20038 13.0659 9.18556 13.0599 9.1737L12.4966 7.94179C12.4833 7.91066 12.4892 7.86323 12.5129 7.81431L12.5974 7.64679C12.6123 7.61714 12.6048 7.56674 12.5796 7.51337L12.126 6.57054C12.1053 6.52904 12.1127 6.47863 12.1438 6.44305C12.2609 6.31557 12.4092 6.30964 12.5856 6.42527C12.8761 6.61353 13.1667 6.81218 13.4572 7.0212C13.5165 7.06271 13.5951 7.05826 13.6485 7.00934C13.8101 6.85962 13.9494 6.88482 14.068 7.08791C14.1822 7.28211 14.3126 7.46445 14.4594 7.63197C14.4772 7.65272 14.5098 7.6542 14.532 7.63493C14.5365 7.63048 14.5409 7.62604 14.5424 7.62159C14.704 7.33548 14.9071 7.32659 15.1546 7.59787C15.4956 7.97293 15.8321 8.32575 16.1627 8.65633C16.2101 8.70228 16.2857 8.70228 16.3317 8.65633C16.3406 8.64743 16.3465 8.63854 16.3524 8.62816C16.4962 8.36281 16.6815 8.32278 16.9113 8.50808C17.3457 8.85646 17.7845 9.19742 18.2292 9.53245C18.2559 9.55172 18.2944 9.54579 18.3137 9.5191C18.3152 9.51614 18.3181 9.51317 18.3196 9.51021C18.4649 9.21224 18.6517 9.16629 18.8815 9.37086C19.0164 9.49094 19.089 9.55616 19.0994 9.56358C19.381 9.77853 19.6494 10.0068 19.9058 10.2485C19.974 10.3122 20.0808 10.3092 20.1445 10.2425C20.1519 10.2351 20.1593 10.2262 20.1653 10.2158C20.3417 9.93567 20.5329 9.90602 20.739 10.1284C21.0132 10.4234 21.2756 10.7199 21.5276 11.0164C21.5543 11.0475 21.6002 11.0505 21.6299 11.0238C21.6358 11.0178 21.6418 11.0119 21.6462 11.0045C21.8182 10.6962 21.9946 10.6532 22.1769 10.8755C22.5431 11.3247 22.9196 11.7798 23.305 12.2438C23.3421 12.2883 23.4073 12.2942 23.4503 12.2572C23.4622 12.2468 23.4726 12.2349 23.4785 12.2201C23.5734 12.0081 23.7068 11.9236 23.8787 11.9696C23.9232 11.9814 23.9603 12.0155 23.9796 12.063L24.7593 14.0568C24.7682 14.0806 24.7934 14.0939 24.8156 14.0865C24.8231 14.0835 24.829 14.0791 24.8349 14.0731ZM13.6944 7.71498C15.7091 10.075 17.2849 12.7004 18.4189 15.5926C19.0519 17.207 19.4789 18.7473 19.6968 20.2134C20.063 22.6727 20.3224 25.1425 20.4751 27.6226C20.4751 27.6433 20.4944 27.6582 20.5136 27.6582C20.5196 27.6582 20.5255 27.6567 20.5299 27.6522C21.0177 27.3572 21.4742 27.0326 21.9012 26.6768C22.2925 26.3507 22.6809 25.9504 23.0649 25.476C23.9277 24.4101 24.6689 23.2613 25.2871 22.0308C25.3093 21.9879 25.296 21.9715 25.247 21.9804C25.0202 22.0175 24.8705 21.9463 24.7964 21.7655C24.7801 21.724 24.7845 21.6736 24.8097 21.6306L25.9927 19.6412C26.0579 19.5315 26.0283 19.4885 25.9052 19.5122C25.757 19.5404 25.6488 19.5122 25.5791 19.4218C25.5331 19.361 25.5183 19.2676 25.5376 19.1386C25.6547 18.3337 25.7837 17.5302 25.923 16.7267C25.9393 16.6377 25.9112 16.6214 25.8415 16.6778C25.631 16.8483 25.4679 16.8616 25.3508 16.7193C25.2945 16.6511 25.253 16.5266 25.2263 16.3457C25.1581 15.8787 25.0929 15.4029 25.0291 14.9152C25.0217 14.8662 25.001 14.8588 24.9639 14.89C24.8557 14.9834 24.7563 15.0056 24.663 14.9552C24.6051 14.9241 24.5562 14.8529 24.5132 14.7432C24.2657 14.0983 24.0181 13.4579 23.7705 12.8249C23.7394 12.7464 23.7023 12.7434 23.6593 12.8175C23.5393 13.0251 23.4133 13.0592 23.2843 12.9213C22.9003 12.5121 22.5342 12.0837 22.1858 11.6375C22.1132 11.5441 22.0731 11.5575 22.0657 11.676C22.0568 11.8258 21.9738 11.9029 21.8182 11.9058C21.7707 11.9058 21.7233 11.888 21.6907 11.8525L20.5744 10.6828C20.5299 10.6354 20.4573 10.6324 20.4113 10.6754C20.4024 10.6843 20.395 10.6932 20.3891 10.7036C20.2735 10.9274 20.1252 10.9734 19.9444 10.8429C19.5456 10.5553 19.1661 10.2499 18.8044 9.92529C18.7584 9.88527 18.6887 9.88823 18.6472 9.93419C18.6354 9.94753 18.628 9.96235 18.6235 9.97866C18.5894 10.1061 18.5168 10.1788 18.4071 10.1951C18.3626 10.201 18.3137 10.1877 18.2737 10.1566L16.769 9.00025C16.7275 8.96912 16.6697 8.97505 16.64 9.01359C16.6371 9.01804 16.6341 9.02249 16.6311 9.02842C16.4443 9.40496 16.2146 9.4435 15.9418 9.14257C15.6587 8.83274 15.3444 8.50512 14.999 8.15971C14.9619 8.12117 14.8996 8.12117 14.8596 8.15971C14.8492 8.16861 14.8418 8.18047 14.8374 8.19381C14.7455 8.42507 14.6254 8.50957 14.4772 8.44582C14.4045 8.41469 14.3259 8.33168 14.2414 8.19677C14.1199 8.00406 13.9865 7.82024 13.8427 7.64383C13.8145 7.60973 13.7686 7.59046 13.7196 7.59491C13.5106 7.60825 13.3223 7.55043 13.1519 7.4185C13.0496 7.33993 13.0451 7.37106 13.1385 7.51189C13.2141 7.629 13.2023 7.78762 13.1029 7.99072C13.0792 8.03964 13.0777 8.09745 13.1015 8.14785C13.2645 8.49326 13.435 8.85942 13.6129 9.24782C13.7552 9.55468 13.6648 9.71479 13.3416 9.72664C13.2764 9.72813 13.226 9.78298 13.2275 9.84672C13.2275 9.86303 13.2319 9.87934 13.2393 9.89416C13.4068 10.244 13.5669 10.5924 13.7196 10.9393C13.8026 11.129 13.8026 11.2565 13.7211 11.3232C13.6307 11.3988 13.4617 11.4196 13.2171 11.3885C13.1459 11.3796 13.0807 11.4314 13.0718 11.5026C13.0703 11.5174 13.0718 11.5308 13.0733 11.5456L13.309 12.7301C13.3194 12.7819 13.3134 12.8309 13.2927 12.8694C13.2156 13.0102 13.0896 13.0503 12.9132 12.988C12.7486 12.9302 12.6938 12.9836 12.7472 13.1511L13.2023 14.5905C13.2838 14.8485 13.1874 14.9315 12.9147 14.841L12.467 14.6913C12.338 14.6483 12.3009 14.6839 12.3558 14.801C12.4714 15.0456 12.5885 15.311 12.7086 15.5956C12.7131 15.6089 12.7649 15.7127 12.8628 15.9099C13.054 16.2953 12.9013 16.4969 12.4062 16.5162C12.3736 16.5162 12.3484 16.5444 12.3484 16.577C12.3484 16.5814 12.3484 16.5859 12.3513 16.5903C12.4714 17.0202 12.6167 17.4412 12.7887 17.8533C12.8776 18.0653 12.7827 18.2254 12.504 18.3307C12.4655 18.3455 12.4462 18.39 12.4625 18.4315C12.4655 18.4389 12.4685 18.4448 12.4729 18.4508L13.1741 19.447C13.2008 19.4855 13.2023 19.5374 13.1785 19.5789C13.0822 19.7346 12.8924 19.7924 12.6063 19.7523C12.5248 19.7405 12.504 19.7701 12.5441 19.8428C12.7605 20.2445 12.9888 20.6374 13.2289 21.0228C13.4068 21.3089 13.3624 21.5016 13.097 21.6009C13.0748 21.6083 13.0629 21.6335 13.0718 21.6573C13.0748 21.6632 13.0777 21.6691 13.0822 21.6736L13.8931 22.4682C13.9301 22.5052 13.9435 22.5556 13.9272 22.5956L13.8456 22.7839C13.8264 22.8284 13.8293 22.8743 13.8531 22.901C14.237 23.322 14.6298 23.7342 15.0316 24.1389C15.2465 24.3538 15.2258 24.5302 14.9723 24.6666C14.9515 24.677 14.9426 24.7037 14.953 24.7244C14.956 24.7304 14.9604 24.7363 14.9664 24.7407C16.5288 25.9845 18.2159 26.9703 20.0259 27.7012C20.0496 27.7115 20.0778 27.6997 20.0882 27.6745C20.0911 27.6685 20.0926 27.6611 20.0911 27.6552C19.9636 25.4894 19.7591 23.3295 19.4774 21.1784C19.1824 18.9177 18.5716 16.746 17.6466 14.6661C16.5792 12.269 15.2021 10.0661 13.5136 8.05891C13.4572 7.9922 13.4291 7.92697 13.4291 7.86619C13.4291 7.7639 13.4765 7.70016 13.5729 7.67347C13.6144 7.66162 13.6618 7.67792 13.6944 7.71647V7.71498Z" fill="white"/>
<path d="M24.8349 14.0731C24.8646 14.0361 24.8883 13.9961 24.9076 13.9531C24.9313 13.8982 24.9565 13.8582 24.9832 13.836C25.1003 13.7396 25.2026 13.7396 25.293 13.8389C25.3389 13.8893 25.3701 13.9709 25.3879 14.082C25.4946 14.7476 25.588 15.4029 25.668 16.0463C25.6769 16.1115 25.7362 16.1589 25.8029 16.15C25.8178 16.1485 25.8326 16.1441 25.8445 16.1367C26.347 15.8624 26.5516 15.987 26.4611 16.5103C26.3233 17.3152 26.1899 18.0846 26.0624 18.8184C26.0446 18.9177 26.1113 19.0141 26.2121 19.0319C26.2284 19.0348 26.2447 19.0348 26.261 19.0334C26.5116 19.0111 26.6568 19.0675 26.6939 19.2038C26.7161 19.2869 26.685 19.4025 26.5975 19.5492C26.261 20.117 25.9126 20.6967 25.5539 21.2852C25.4902 21.3904 25.5139 21.4171 25.6251 21.3667C25.7155 21.3252 25.8104 21.3445 25.9067 21.423C25.9423 21.4527 25.9616 21.4986 25.9571 21.5476C25.9438 21.7269 25.8697 21.9493 25.7377 22.2147C25.0988 23.494 24.3324 24.6903 23.4385 25.8066C22.7313 26.6887 21.8656 27.4299 20.8412 28.0273C20.7523 28.0792 20.6974 28.1755 20.6974 28.2793L20.6886 31.5822C20.6886 31.6266 20.6589 31.6652 20.6174 31.677C20.4469 31.723 20.275 31.7245 20.1015 31.6845C20.057 31.6741 20.0244 31.637 20.0215 31.5925L19.7724 28.3193C19.765 28.2259 19.7101 28.1459 19.6301 28.1088C17.7103 27.2297 15.9744 26.1742 14.4238 24.9394C14.2978 24.8401 14.2326 24.757 14.2266 24.6918C14.2162 24.5895 14.2874 24.4813 14.4386 24.3686C14.4742 24.342 14.4816 24.2901 14.4549 24.2545C14.4534 24.2515 14.4505 24.25 14.449 24.2471C13.9791 23.7594 13.5062 23.242 13.0288 22.695C12.9502 22.6045 12.9517 22.5082 13.0362 22.4074C13.0688 22.3688 13.0644 22.311 13.0259 22.2769C13.0259 22.2769 13.0259 22.2769 13.0244 22.2769C12.7486 22.0471 12.4996 21.8203 12.2772 21.5995C12.1868 21.509 12.1408 21.4171 12.1408 21.3252C12.1408 21.1414 12.2624 21.0806 12.504 21.1414C12.6508 21.177 12.6893 21.128 12.6197 20.9961C12.4166 20.6047 12.2046 20.2208 11.9822 19.8443C11.7406 19.4336 11.8666 19.2483 12.3602 19.2883C12.4581 19.2958 12.4788 19.2602 12.421 19.1816C12.2402 18.9326 12.0593 18.682 11.8799 18.4285C11.7762 18.2803 11.7421 18.1706 11.7762 18.0994C11.8221 18.006 11.9452 17.9304 12.1453 17.8726C12.2135 17.8533 12.252 17.7807 12.2328 17.7095C12.2328 17.7066 12.2313 17.7036 12.2298 17.7021L11.7658 16.4347C11.6724 16.1782 11.7613 16.0566 12.0341 16.0729C12.2995 16.0892 12.3899 16.0151 12.3024 15.8521C12.2446 15.7438 12.2135 15.6845 12.2105 15.6757C12.0282 15.2324 11.8399 14.7921 11.6487 14.3548C11.6264 14.3044 11.622 14.2525 11.6368 14.214C11.7095 14.0257 11.9303 14.0079 12.3009 14.1606C12.4996 14.2436 12.5678 14.1828 12.5055 13.9768L12.1305 12.7523C12.1156 12.7034 12.1171 12.6545 12.1364 12.6159C12.2328 12.4217 12.4077 12.3654 12.6597 12.4439C12.6849 12.4528 12.7116 12.4395 12.719 12.4158C12.7205 12.4098 12.722 12.4039 12.722 12.3965C12.6834 12.0066 12.6211 11.6212 12.5366 11.2402C12.4655 10.923 12.6182 10.797 12.9962 10.8637C13.1044 10.8829 13.1385 10.8414 13.0955 10.7391C12.9754 10.4575 12.8405 10.1521 12.6923 9.823C12.6315 9.68662 12.6108 9.5873 12.633 9.52503C12.6701 9.42275 12.7798 9.36493 12.9636 9.34862C13.0303 9.34269 13.0777 9.2834 13.0703 9.21372C13.0703 9.20038 13.0659 9.18556 13.0599 9.1737L12.4966 7.94179C12.4833 7.91066 12.4892 7.86323 12.5129 7.81431L12.5974 7.64679C12.6123 7.61714 12.6048 7.56674 12.5796 7.51337L12.126 6.57054C12.1053 6.52904 12.1127 6.47863 12.1438 6.44305C12.2609 6.31557 12.4092 6.30964 12.5856 6.42527C12.8761 6.61353 13.1667 6.81218 13.4572 7.0212C13.5165 7.06271 13.5951 7.05826 13.6485 7.00934C13.8101 6.85962 13.9494 6.88482 14.068 7.08791C14.1822 7.28211 14.3126 7.46445 14.4594 7.63197C14.4772 7.65272 14.5098 7.6542 14.532 7.63493C14.5365 7.63048 14.5409 7.62604 14.5424 7.62159C14.704 7.33548 14.9071 7.32659 15.1546 7.59787C15.4956 7.97293 15.8321 8.32575 16.1627 8.65633C16.2101 8.70228 16.2857 8.70228 16.3317 8.65633C16.3406 8.64743 16.3465 8.63854 16.3524 8.62816C16.4962 8.36281 16.6815 8.32278 16.9113 8.50808C17.3457 8.85646 17.7845 9.19742 18.2292 9.53245C18.2559 9.55172 18.2944 9.54579 18.3137 9.5191C18.3152 9.51614 18.3181 9.51317 18.3196 9.51021C18.4649 9.21224 18.6517 9.16629 18.8815 9.37086C19.0164 9.49094 19.089 9.55616 19.0994 9.56358C19.381 9.77853 19.6494 10.0068 19.9058 10.2485C19.974 10.3122 20.0808 10.3092 20.1445 10.2425C20.1519 10.2351 20.1593 10.2262 20.1653 10.2158C20.3417 9.93567 20.5329 9.90602 20.739 10.1284C21.0132 10.4234 21.2756 10.7199 21.5276 11.0164C21.5543 11.0475 21.6002 11.0505 21.6299 11.0238C21.6358 11.0178 21.6418 11.0119 21.6462 11.0045C21.8182 10.6962 21.9946 10.6532 22.1769 10.8755C22.5431 11.3247 22.9196 11.7798 23.305 12.2438C23.3421 12.2883 23.4073 12.2942 23.4503 12.2572C23.4622 12.2468 23.4726 12.2349 23.4785 12.2201C23.5734 12.0081 23.7068 11.9236 23.8787 11.9696C23.9232 11.9814 23.9603 12.0155 23.9796 12.063L24.7593 14.0568C24.7682 14.0806 24.7934 14.0939 24.8156 14.0865C24.8231 14.0835 24.829 14.0791 24.8349 14.0731ZM13.6944 7.71498C15.7091 10.075 17.2849 12.7004 18.4189 15.5926C19.0519 17.207 19.4789 18.7473 19.6968 20.2134C20.063 22.6727 20.3224 25.1425 20.4751 27.6226C20.4751 27.6433 20.4944 27.6582 20.5136 27.6582C20.5196 27.6582 20.5255 27.6567 20.5299 27.6522C21.0177 27.3572 21.4742 27.0326 21.9012 26.6768C22.2925 26.3507 22.6809 25.9504 23.0649 25.476C23.9277 24.4101 24.6689 23.2613 25.2871 22.0308C25.3093 21.9879 25.296 21.9715 25.247 21.9804C25.0202 22.0175 24.8705 21.9463 24.7964 21.7655C24.7801 21.724 24.7845 21.6736 24.8097 21.6306L25.9927 19.6412C26.0579 19.5315 26.0283 19.4885 25.9052 19.5122C25.757 19.5404 25.6488 19.5122 25.5791 19.4218C25.5331 19.361 25.5183 19.2676 25.5376 19.1386C25.6547 18.3337 25.7837 17.5302 25.923 16.7267C25.9393 16.6377 25.9112 16.6214 25.8415 16.6778C25.631 16.8483 25.4679 16.8616 25.3508 16.7193C25.2945 16.6511 25.253 16.5266 25.2263 16.3457C25.1581 15.8787 25.0929 15.4029 25.0291 14.9152C25.0217 14.8662 25.001 14.8588 24.9639 14.89C24.8557 14.9834 24.7563 15.0056 24.663 14.9552C24.6051 14.9241 24.5562 14.8529 24.5132 14.7432C24.2657 14.0983 24.0181 13.4579 23.7705 12.8249C23.7394 12.7464 23.7023 12.7434 23.6593 12.8175C23.5393 13.0251 23.4133 13.0592 23.2843 12.9213C22.9003 12.5121 22.5342 12.0837 22.1858 11.6375C22.1132 11.5441 22.0731 11.5575 22.0657 11.676C22.0568 11.8258 21.9738 11.9029 21.8182 11.9058C21.7707 11.9058 21.7233 11.888 21.6907 11.8525L20.5744 10.6828C20.5299 10.6354 20.4573 10.6324 20.4113 10.6754C20.4024 10.6843 20.395 10.6932 20.3891 10.7036C20.2735 10.9274 20.1252 10.9734 19.9444 10.8429C19.5456 10.5553 19.1661 10.2499 18.8044 9.92529C18.7584 9.88527 18.6887 9.88823 18.6472 9.93419C18.6354 9.94753 18.628 9.96235 18.6235 9.97866C18.5894 10.1061 18.5168 10.1788 18.4071 10.1951C18.3626 10.201 18.3137 10.1877 18.2737 10.1566L16.769 9.00025C16.7275 8.96912 16.6697 8.97505 16.64 9.01359C16.6371 9.01804 16.6341 9.02249 16.6311 9.02842C16.4443 9.40496 16.2146 9.4435 15.9418 9.14257C15.6587 8.83274 15.3444 8.50512 14.999 8.15971C14.9619 8.12117 14.8996 8.12117 14.8596 8.15971C14.8492 8.16861 14.8418 8.18047 14.8374 8.19381C14.7455 8.42507 14.6254 8.50957 14.4772 8.44582C14.4045 8.41469 14.3259 8.33168 14.2414 8.19677C14.1199 8.00406 13.9865 7.82024 13.8427 7.64383C13.8145 7.60973 13.7686 7.59046 13.7196 7.59491C13.5106 7.60825 13.3223 7.55043 13.1519 7.4185C13.0496 7.33993 13.0451 7.37106 13.1385 7.51189C13.2141 7.629 13.2023 7.78762 13.1029 7.99072C13.0792 8.03964 13.0777 8.09745 13.1015 8.14785C13.2645 8.49326 13.435 8.85942 13.6129 9.24782C13.7552 9.55468 13.6648 9.71479 13.3416 9.72664C13.2764 9.72813 13.226 9.78298 13.2275 9.84672C13.2275 9.86303 13.2319 9.87934 13.2393 9.89416C13.4068 10.244 13.5669 10.5924 13.7196 10.9393C13.8026 11.129 13.8026 11.2565 13.7211 11.3232C13.6307 11.3988 13.4617 11.4196 13.2171 11.3885C13.1459 11.3796 13.0807 11.4314 13.0718 11.5026C13.0703 11.5174 13.0718 11.5308 13.0733 11.5456L13.309 12.7301C13.3194 12.7819 13.3134 12.8309 13.2927 12.8694C13.2156 13.0102 13.0896 13.0503 12.9132 12.988C12.7486 12.9302 12.6938 12.9836 12.7472 13.1511L13.2023 14.5905C13.2838 14.8485 13.1874 14.9315 12.9147 14.841L12.467 14.6913C12.338 14.6483 12.3009 14.6839 12.3558 14.801C12.4714 15.0456 12.5885 15.311 12.7086 15.5956C12.7131 15.6089 12.7649 15.7127 12.8628 15.9099C13.054 16.2953 12.9013 16.4969 12.4062 16.5162C12.3736 16.5162 12.3484 16.5444 12.3484 16.577C12.3484 16.5814 12.3484 16.5859 12.3513 16.5903C12.4714 17.0202 12.6167 17.4412 12.7887 17.8533C12.8776 18.0653 12.7827 18.2254 12.504 18.3307C12.4655 18.3455 12.4462 18.39 12.4625 18.4315C12.4655 18.4389 12.4685 18.4448 12.4729 18.4508L13.1741 19.447C13.2008 19.4855 13.2023 19.5374 13.1785 19.5789C13.0822 19.7346 12.8924 19.7924 12.6063 19.7523C12.5248 19.7405 12.504 19.7701 12.5441 19.8428C12.7605 20.2445 12.9888 20.6374 13.2289 21.0228C13.4068 21.3089 13.3624 21.5016 13.097 21.6009C13.0748 21.6083 13.0629 21.6335 13.0718 21.6573C13.0748 21.6632 13.0777 21.6691 13.0822 21.6736L13.8931 22.4682C13.9301 22.5052 13.9435 22.5556 13.9272 22.5956L13.8456 22.7839C13.8264 22.8284 13.8293 22.8743 13.8531 22.901C14.237 23.322 14.6298 23.7342 15.0316 24.1389C15.2465 24.3538 15.2258 24.5302 14.9723 24.6666C14.9515 24.677 14.9426 24.7037 14.953 24.7244C14.956 24.7304 14.9604 24.7363 14.9664 24.7407C16.5288 25.9845 18.2159 26.9703 20.0259 27.7012C20.0496 27.7115 20.0778 27.6997 20.0882 27.6745C20.0911 27.6685 20.0926 27.6611 20.0911 27.6552C19.9636 25.4894 19.7591 23.3295 19.4774 21.1784C19.1824 18.9177 18.5716 16.746 17.6466 14.6661C16.5792 12.269 15.2021 10.0661 13.5136 8.05891C13.4572 7.9922 13.4291 7.92697 13.4291 7.86619C13.4291 7.7639 13.4765 7.70016 13.5729 7.67347C13.6144 7.66162 13.6618 7.67792 13.6944 7.71647V7.71498Z" stroke="white" stroke-width="0.5" mask="url(#path-2-outside-1_2191_1474)"/>
<path d="M17.6731 9.90039C17.8518 9.89465 18.015 9.99834 18.0872 10.1611C18.6667 11.4723 18.8503 12.7777 18.637 14.0742C18.6236 14.1575 18.5744 14.2316 18.5022 14.2744H18.5012C18.4411 14.3094 18.3792 14.3371 18.3196 14.3467C18.2575 14.3566 18.1853 14.3483 18.1272 14.2969C18.0732 14.249 18.0525 14.182 18.0452 14.123C18.0414 14.0928 18.0407 14.0599 18.0422 14.0254L18.0833 13.6426C18.0906 13.3248 18.0955 13.0074 18.094 12.6904C18.0911 11.8712 17.8885 11.1084 17.4856 10.3994L17.4866 10.3984C17.4546 10.3425 17.4291 10.2885 17.4143 10.2373C17.3998 10.187 17.3918 10.1302 17.4065 10.0742C17.4226 10.0131 17.4617 9.9656 17.5149 9.93652C17.5635 9.90996 17.6192 9.90185 17.6721 9.90039H17.6731Z" fill="white" stroke="white" stroke-width="0.25"/>
<path d="M19.9304 11.124C20.0184 11.0935 20.1091 11.1228 20.1814 11.1602C20.2345 11.1878 20.2757 11.2305 20.3054 11.2783L20.3318 11.3281L20.3328 11.3311L20.4333 11.5977C20.6497 12.2242 20.7394 12.8752 20.7009 13.5488C20.6246 14.9177 20.3489 16.2453 19.8777 17.5303C19.8555 17.5914 19.8293 17.6467 19.7966 17.6914C19.7639 17.7361 19.7189 17.7774 19.6589 17.7969C19.5284 17.839 19.4183 17.7552 19.3464 17.6738L19.3455 17.6729C19.2681 17.5837 19.2413 17.4578 19.282 17.3428C19.7061 16.1204 19.9694 14.9699 20.072 13.8906C20.1459 13.1093 20.0559 12.3506 19.8025 11.6162V11.6152C19.768 11.5149 19.7514 11.4136 19.7722 11.3232L19.7908 11.2637C19.8152 11.2044 19.8578 11.1493 19.9304 11.124Z" fill="white" stroke="white" stroke-width="0.25"/>
<path d="M13.8643 11.6992C13.9715 11.7041 14.0623 11.7717 14.1348 11.8525H14.1338C15.0325 12.8513 16.0389 13.7201 17.1553 14.4629H17.1543C17.2082 14.4982 17.2505 14.5507 17.2695 14.6123L17.2812 14.6768V14.6787C17.2831 14.7563 17.2664 14.8404 17.2051 14.9033C17.1432 14.9668 17.0597 14.9831 16.9824 14.9805V14.9814H16.9805V14.9805C16.8923 14.9777 16.805 14.9405 16.7246 14.8896L16.7227 14.8887C15.5865 14.1486 14.5507 13.2545 13.6143 12.209L13.6133 12.208C13.5251 12.1068 13.5173 11.956 13.5986 11.8457V11.8447C13.6611 11.7618 13.7496 11.6942 13.8643 11.6992Z" fill="white" stroke="white" stroke-width="0.25"/>
<path d="M22.3311 12.5498C22.4027 12.5463 22.4588 12.5836 22.4961 12.6191C22.5339 12.6553 22.5673 12.7038 22.5977 12.7578C22.6432 12.837 22.6663 12.9273 22.6748 13.0225V13.0244C22.7316 13.7465 22.7349 14.4685 22.6855 15.1904C22.5371 17.339 21.8107 19.2589 20.5088 20.9463L20.5078 20.9473C20.4439 21.0291 20.3751 21.0956 20.3008 21.1387L20.2998 21.1377C20.2541 21.1644 20.2058 21.187 20.1562 21.1953C20.1042 21.204 20.0439 21.1981 19.9912 21.1602C19.9409 21.1239 19.9157 21.0713 19.9033 21.0234C19.8909 20.9753 19.8881 20.9205 19.8906 20.8643C19.8936 20.7879 19.9256 20.7186 19.9658 20.6631L19.9678 20.6611C21.6487 18.426 22.3489 15.9017 22.0674 13.082C22.0572 12.9783 22.0644 12.8802 22.0957 12.792C22.1158 12.7347 22.1406 12.6813 22.1729 12.6396C22.2053 12.5979 22.2575 12.5534 22.3311 12.5498Z" fill="white" stroke="white" stroke-width="0.25"/>
<path d="M13.4226 13.4102C13.5027 13.4037 13.5676 13.4497 13.6091 13.4873C13.6555 13.5293 13.7027 13.5887 13.7507 13.6592H13.7517C14.9487 15.4084 16.4769 16.7946 18.3406 17.8154L18.3416 17.8164C18.4732 17.8895 18.5352 18.0439 18.491 18.1865L18.49 18.1875C18.4683 18.2544 18.4278 18.3292 18.3484 18.3643C18.2669 18.4001 18.1845 18.3776 18.1218 18.3447V18.3438C16.1184 17.3037 14.498 15.8431 13.2664 13.959V13.958C13.2269 13.8967 13.2031 13.8213 13.2107 13.7432C13.2174 13.6676 13.2306 13.5981 13.2546 13.543C13.2784 13.4888 13.3289 13.4178 13.4226 13.4102Z" fill="white" stroke="white" stroke-width="0.25"/>
<path d="M23.8254 14.5371C23.8908 14.5138 23.9575 14.5233 24.0168 14.5449L24.0735 14.5693L24.0754 14.5713C24.1477 14.6102 24.1962 14.678 24.219 14.7529V14.7539C24.3869 15.321 24.4681 15.8692 24.4622 16.3994L24.4543 16.626C24.2731 19.6805 23.0602 22.2506 20.8206 24.3301L20.8215 24.3311C20.7437 24.4038 20.6567 24.4586 20.5627 24.4746C20.483 24.4882 20.3851 24.4807 20.3167 24.4033C20.2548 24.3331 20.2486 24.238 20.2561 24.1572V24.1562C20.2641 24.0764 20.3055 24.0048 20.3625 23.9521C22.3934 22.0425 23.5454 19.7282 23.8254 17.0049C23.8846 16.4175 23.8355 15.7536 23.676 15.0146C23.6537 14.9108 23.6475 14.8149 23.6672 14.7334V14.7314C23.6869 14.654 23.7315 14.5706 23.8254 14.5371Z" fill="white" stroke="white" stroke-width="0.25"/>
<path d="M13.1377 15.3662C13.1907 15.3421 13.2493 15.3399 13.3047 15.3613C13.3553 15.381 13.3949 15.4173 13.4258 15.4551C13.4573 15.4937 13.4858 15.5413 13.5117 15.5947L13.7383 16.0361C14.831 18.0619 16.3948 19.6053 18.4297 20.6709L18.873 20.8926C18.9194 20.9149 18.9629 20.9392 19.002 20.9658L19.1064 21.0518V21.0527C19.1518 21.0989 19.191 21.1465 19.2158 21.1943C19.2399 21.2408 19.2606 21.3074 19.2344 21.377C19.2076 21.4476 19.1468 21.4834 19.0967 21.501C19.0459 21.5188 18.9855 21.5257 18.9219 21.5273H18.918C18.8308 21.5273 18.7421 21.5062 18.6543 21.4658H18.6533C16.3561 20.3924 14.5523 18.6953 13.2402 16.3789L12.9844 15.9072C12.9101 15.7649 12.9252 15.593 13.0205 15.4658L13.0215 15.4648C13.0513 15.426 13.0891 15.3884 13.1377 15.3662Z" fill="white" stroke="white" stroke-width="0.25"/>
<path d="M13.5012 18.665C13.5605 18.6766 13.607 18.7116 13.6409 18.749C13.6748 18.7866 13.7037 18.8345 13.7288 18.8867C14.3948 20.2817 15.2999 21.4961 16.4426 22.5332H16.4417C17.2846 23.2976 18.2539 23.8271 19.3499 24.123L19.4075 24.1426C19.4623 24.1678 19.5088 24.2091 19.5393 24.2617C19.5885 24.3467 19.6316 24.4608 19.5784 24.5654C19.5247 24.6705 19.4073 24.7012 19.3108 24.71C19.2669 24.7139 19.2207 24.7125 19.1731 24.7061L19.0256 24.6729C17.6384 24.2521 16.3955 23.4503 15.2971 22.2725C14.4379 21.3503 13.738 20.2874 13.2004 19.085L13.1995 19.083C13.1628 18.9965 13.1699 18.894 13.2268 18.8125L13.2747 18.7529C13.3295 18.6946 13.4053 18.6465 13.5012 18.665Z" fill="white" stroke="white" stroke-width="0.25"/>
</svg>
